<svg width="30" height="30" viewBox="0 0 30 30" fill="none" xmlns="http://www.w3.org/2000/svg">
<path d="M3.125 22.3514C4.33063 23.0182 13.0569 28.0482 19.2625 24.1714C25.4681 20.2945 25.125 13.6151 25.125 10.5539C25.6875 9.37636 26.875 8.77761 26.875 5.59011C25.7087 6.6672 24.5494 7.03386 23.3969 6.69011C22.2681 4.96886 20.7148 4.2074 18.7369 4.40574C15.7706 4.70386 14.6856 7.61386 15.005 11.3795C10.4312 13.692 6.845 9.70261 4.99625 6.69011C4.37875 9.06261 3.78375 11.9114 4.99625 15.062C5.80542 17.1628 7.74938 18.9391 10.8281 20.3907C7.70729 22.0824 5.13958 22.7359 3.125 22.3514Z" stroke="white" stroke-width="2" stroke-linejoin="round"/>
</svg>
